<?xml version="1.0" encoding="UTF-8" standalone="no"?>
<!DOCTYPE svg PUBLIC "-//W3C//DTD SVG 1.1//EN" "http://www.w3.org/Graphics/SVG/1.1/DTD/svg11.dtd">
<svg width="256px" height="256px" viewBox="0 0 800 300" xmlns="http://www.w3.org/2000/svg" version="1.1">
  <title>Lemniscate</title>
  <g transform="translate(0, -100)">
    <g transform="rotate(45 0 0)">
      <g transform="translate(0, -250)">
      <circle cx="126.0" cy="150.0" r="20" fill="red" stroke="none"/>
      <circle cx="674.0" cy="150.0" r="20" fill="red" stroke="none"/>
      <path fill="none" stroke="olive" stroke-width="16" d="M 787.49,150 C 787.49,203.36 755.56,247.27 712.27,269.5 S 622.17,290.34 582.67,279.16 508.78,246.56 480,223.91 424.93,174.93 400,150 348.85,98.79 320,76.09 256.91,32.03 217.33,20.84 130.62,8.48 87.73,30.5 12.51,96.64 12.51,150 44.44,247.27 87.73,269.5 177.83,290.34 217.33,279.16 291.22,246.56 320,223.91 375.07,174.93 400,150 451.15,98.79 480,76.09 543.09,32.03 582.67,20.84 669.38,8.48 712.27,30.5 787.49,96.64 787.49,150 z"/>
      </g>
    </g>
  </g>
</svg>
